{"title":"Fading Of The Cries (2011) BRrip 720x Surround Greek Subs","uid":6556102,"size":847337200,"categoryP":"video","categoryS":"hd___movies","magnet":"?xt=urn:btih:67bbb5e1e3f9a94e8c2357844c83693350e5b13a&amp;dn=Fading+Of+The+Cries+%282011%29+BRrip+720x+Surround+Greek+Subs&amp;tr=udp%3A%2F%2Ftracker.openbittorrent.com%3A80&amp;tr=udp%3A%2F%2Fopen.demonii.com%3A1337&amp;tr=udp%3A%2F%2Ftracker.coppersurfer.tk%3A6969&amp;tr=udp%3A%2F%2Fexodus.desync.com%3A6969","seeders":0,"leechers":1,"uploader":"OmifastGR","files":-1,"time":1311297887,"description":"---------------------------------------------------\nAVC (Advanced Video Coding) H264\nHigh Efficiency Dolby Digital Surround\n---------------------------------------------------\n\nIMDB &lt;a href=&quot;\nhttp://www.imdb.com/title/tt1262406/&quot; rel=&quot;nofollow&quot; target=&quot;_NEW&quot;&gt;\nhttp://www.imdb.com/title/tt1262406/&lt;/a&gt;\n\nSAMPLE and SNAPSHOTS are included\n\nPlot Summary: Jacob sets out to get Sarah home safely, running through streets, fields, churches and underground tunnels, while being pursued by hordes of demonic creatures. Along the way, both come to terms with the demons within themselves - Sarah begins to understand her hatred towards her mother and sister may be unjustified and Jacob discovers the secrets of his past, realizing the only way to truly defeat the demons is to return to the very place his family was murdered. \n\n\nMEDIA INFO\n\nVideo\nID                               : 1\nFormat                           : AVC\nFormat/Info                      : Advanced Video Codec\nCodec ID/Info                    : Advanced Video Coding\nDuration                         : 1h 33mn\nBit rate mode                    : Variable\nBit rate                         : 1 000 Kbps\nWidth                            : 720 pixels\nHeight                           : 304 pixels\nDisplay aspect ratio             : 2.35:1\nOriginal display aspect ratio    : 2.35:1\nFrame rate mode                  : Variable\nFrame rate                       : 24.000 fps\nMinimum frame rate               : 23.810 fps\nMaximum frame rate               : 1 000.000 fps\nScan type                        : Progressive\nStream size                      : 667 MiB (83%)\nWriting library                  : x264 core 112\n\nAudio\nID                               : 2\nFormat                           : AAC\nFormat/Info                      : Advanced Audio Codec\nFormat profile                   : High Efficiency\nDuration                         : 1h 33mn\nBit rate mode                    : Variable\nBit rate                         : 192 Kbps\nMaximum bit rate                 : 298 Kbps\nChannel(s)                       : 6 channels\nChannel positions                : Front: L C R,Side: L R, LFE\nSampling rate                    : 48.0 KHz\nCompression mode                 : Lossy\nStream size                      : 128 MiB (16%)\n","torrent":{"xt":"urn:btih:67bbb5e1e3f9a94e8c2357844c83693350e5b13a","amp;dn":"Fading+Of+The+Cries+%282011%29+BRrip+720x+Surround+Greek+Subs","amp;tr":["udp%3A%2F%2Ftracker.openbittorrent.com%3A80","udp%3A%2F%2Fopen.demonii.com%3A1337","udp%3A%2F%2Ftracker.coppersurfer.tk%3A6969","udp%3A%2F%2Fexodus.desync.com%3A6969"],"infoHash":"67bbb5e1e3f9a94e8c2357844c83693350e5b13a","infoHashBuffer":{"type":"Buffer","data":[103,187,181,225,227,249,169,78,140,35,87,132,76,131,105,51,80,229,177,58]},"announce":[],"urlList":[]}}